<svg width="18" height="17" viewBox="0 0 18 17" fill="none" xmlns="http://www.w3.org/2000/svg">
<path d="M6.36615 0.0806059C6.42671 0.118846 6.47953 0.169292 6.5216 0.229062C6.56366 0.288833 6.59415 0.356757 6.61132 0.428954C6.62848 0.501152 6.63199 0.576208 6.62165 0.649836C6.6113 0.723464 6.5873 0.794222 6.55101 0.858066L3.81465 5.66676H13.7391L11.0016 0.858066C10.9284 0.729119 10.9067 0.574767 10.9414 0.428964C10.976 0.283162 11.0642 0.157854 11.1865 0.0806059C11.3088 0.00335782 11.4551 -0.0195023 11.5934 0.0170545C11.7317 0.0536113 11.8505 0.146591 11.9238 0.275538L14.9922 5.66676H16.3002C16.5853 5.66676 16.8587 5.78616 17.0602 5.9987C17.2618 6.21124 17.375 6.49951 17.375 6.80008V7.93341C17.375 8.23398 17.2618 8.52225 17.0602 8.73479C16.8587 8.94733 16.5853 9.06673 16.3002 9.06673V14.1667C16.3002 14.9181 16.0171 15.6388 15.5133 16.1701C15.0094 16.7015 14.3259 17 13.6133 17H3.9404C3.22778 17 2.54436 16.7015 2.04046 16.1701C1.53656 15.6388 1.25348 14.9181 1.25348 14.1667V9.06673C0.968433 9.06673 0.695061 8.94733 0.493503 8.73479C0.291945 8.52225 0.178711 8.23398 0.178711 7.93341V6.80008C0.178711 6.49951 0.291945 6.21124 0.493503 5.9987C0.695061 5.78616 0.968433 5.66676 1.25348 5.66676H2.56147L5.62779 0.275538C5.66405 0.211679 5.71189 0.15598 5.76857 0.111622C5.82525 0.0672639 5.88967 0.0351155 5.95814 0.0170134C6.0266 -0.00108855 6.09778 -0.00478948 6.16761 0.00612187C6.23743 0.0170332 6.30453 0.0423431 6.36508 0.0806059H6.36615ZM2.32825 9.06673V14.1667C2.32825 14.6176 2.4981 15.05 2.80044 15.3688C3.10277 15.6876 3.51283 15.8667 3.9404 15.8667H13.6133C14.0409 15.8667 14.4509 15.6876 14.7533 15.3688C15.0556 15.05 15.2255 14.6176 15.2255 14.1667V9.06673H2.32825ZM1.25348 6.80008V7.93341H16.3002V6.80008H1.25348ZM4.47778 10.2001C4.62031 10.2001 4.75699 10.2598 4.85777 10.366C4.95855 10.4723 5.01517 10.6164 5.01517 10.7667V14.1667C5.01517 14.317 4.95855 14.4611 4.85777 14.5674C4.75699 14.6737 4.62031 14.7334 4.47778 14.7334C4.33526 14.7334 4.19858 14.6737 4.0978 14.5674C3.99702 14.4611 3.9404 14.317 3.9404 14.1667V10.7667C3.9404 10.6164 3.99702 10.4723 4.0978 10.366C4.19858 10.2598 4.33526 10.2001 4.47778 10.2001ZM6.62732 10.2001C6.76984 10.2001 6.90653 10.2598 7.00731 10.366C7.10809 10.4723 7.1647 10.6164 7.1647 10.7667V14.1667C7.1647 14.317 7.10809 14.4611 7.00731 14.5674C6.90653 14.6737 6.76984 14.7334 6.62732 14.7334C6.4848 14.7334 6.34811 14.6737 6.24733 14.5674C6.14655 14.4611 6.08994 14.317 6.08994 14.1667V10.7667C6.08994 10.6164 6.14655 10.4723 6.24733 10.366C6.34811 10.2598 6.4848 10.2001 6.62732 10.2001ZM8.77686 10.2001C8.91938 10.2001 9.05607 10.2598 9.15685 10.366C9.25762 10.4723 9.31424 10.6164 9.31424 10.7667V14.1667C9.31424 14.317 9.25762 14.4611 9.15685 14.5674C9.05607 14.6737 8.91938 14.7334 8.77686 14.7334C8.63433 14.7334 8.49765 14.6737 8.39687 14.5674C8.29609 14.4611 8.23947 14.317 8.23947 14.1667V10.7667C8.23947 10.6164 8.29609 10.4723 8.39687 10.366C8.49765 10.2598 8.63433 10.2001 8.77686 10.2001ZM10.9264 10.2001C11.0689 10.2001 11.2056 10.2598 11.3064 10.366C11.4072 10.4723 11.4638 10.6164 11.4638 10.7667V14.1667C11.4638 14.317 11.4072 14.4611 11.3064 14.5674C11.2056 14.6737 11.0689 14.7334 10.9264 14.7334C10.7839 14.7334 10.6472 14.6737 10.5464 14.5674C10.4456 14.4611 10.389 14.317 10.389 14.1667V10.7667C10.389 10.6164 10.4456 10.4723 10.5464 10.366C10.6472 10.2598 10.7839 10.2001 10.9264 10.2001ZM13.0759 10.2001C13.2185 10.2001 13.3551 10.2598 13.4559 10.366C13.5567 10.4723 13.6133 10.6164 13.6133 10.7667V14.1667C13.6133 14.317 13.5567 14.4611 13.4559 14.5674C13.3551 14.6737 13.2185 14.7334 13.0759 14.7334C12.9334 14.7334 12.7967 14.6737 12.6959 14.5674C12.5952 14.4611 12.5385 14.317 12.5385 14.1667V10.7667C12.5385 10.6164 12.5952 10.4723 12.6959 10.366C12.7967 10.2598 12.9334 10.2001 13.0759 10.2001Z" fill="black"/>
</svg>
