<svg width="21" height="19" viewBox="0 0 21 19" fill="none" xmlns="http://www.w3.org/2000/svg">
<path d="M1.05664 3.00875L3.73586 0.482065C4.06289 0.173353 4.50062 0 4.96351 0C5.4264 0 5.86413 0.170979 6.19117 0.482065L9.07667 3.2011C9.40371 3.50981 9.58735 3.92538 9.58735 4.36233C9.58735 4.80165 9.40622 5.21247 9.07667 5.52356L6.82261 7.65367C7.3361 8.78304 8.0739 9.80918 8.99616 10.6767C9.91942 11.5529 10.9987 12.244 12.1961 12.7332L14.4502 10.6031C14.7772 10.2943 15.215 10.121 15.6778 10.121C15.9062 10.1202 16.1323 10.1624 16.3432 10.2452C16.554 10.328 16.7451 10.4496 16.9055 10.6031L19.7935 13.3221C20.1206 13.6308 20.3042 14.0464 20.3042 14.4833C20.3042 14.9226 20.1231 15.3335 19.7935 15.6445L17.1168 18.1712C16.5583 18.6984 15.7885 19 14.9986 19C14.8351 19 14.6766 18.9881 14.5156 18.962C11.1848 18.4443 7.8792 16.7702 5.21005 14.253C2.54342 11.731 0.772367 8.61067 0.218916 5.46419C0.0604267 4.5713 0.377405 3.65229 1.05664 3.00875ZM2.00254 5.1816C2.4931 7.98138 4.08805 10.774 6.49054 13.0419C8.89302 15.3097 11.849 16.8153 14.815 17.2783C15.1873 17.3377 15.5697 17.219 15.8414 16.9649L18.4703 14.4833L15.6829 11.8498L12.6691 14.6994L12.6464 14.7208L12.103 14.5308C10.4554 13.959 8.95927 13.0558 7.71822 11.8839C6.47716 10.712 5.5209 9.29937 4.91571 7.74391L4.71446 7.23097L7.75341 4.3647L4.96603 1.73116L2.33713 4.21272C2.06543 4.46919 1.93965 4.83015 2.00254 5.1816Z" fill="black"/>
</svg>
