<svg width="114" height="128" viewBox="0 0 114 128" fill="none" xmlns="http://www.w3.org/2000/svg">
<ellipse cx="62.6935" cy="78" rx="50.5226" ry="50" fill="#EA5A64"/>
<path d="M53.8845 63.5627H48.6409C47.7187 63.5627 46.9685 62.8863 46.9685 62.0547V56.6625C48.8627 55.4662 50.654 53.9318 52.289 52.0855C55.9249 47.9797 58.3889 42.7717 59.1758 37.6135C61.0115 37.5826 62.495 36.2287 62.495 34.566V29.8035C62.495 28.7693 61.92 27.8551 61.0446 27.3033V24.7482C64.3078 22.8119 66.2066 19.4666 66.0225 15.9248C65.752 10.7611 61.0509 6.58867 55.3198 6.42598C53.4763 6.37324 51.7008 6.72188 50.0905 7.43887C47.7157 3.03965 42.7082 0 36.9273 0C31.1463 0 26.1388 3.03965 23.7638 7.43906C22.154 6.72246 20.3791 6.37422 18.5343 6.42617C12.8034 6.58887 8.10236 10.7611 7.83163 15.9256C7.64798 19.4654 9.54499 22.8096 12.8097 24.748V27.3033C11.9343 27.8553 11.3593 28.7693 11.3593 29.8035V34.566C11.3593 36.2287 12.8426 37.5826 14.6786 37.6135C15.4654 42.7717 17.9294 47.9797 21.5653 52.0855C23.2003 53.9318 24.9918 55.4662 26.8858 56.6625V62.0547C26.8858 62.8861 26.1356 63.5627 25.2134 63.5627H19.9676C15.1477 63.5627 10.496 65.1352 6.86959 67.9906C3.2785 70.8184 0.927752 74.7082 0.250943 78.9434C0.122728 79.7441 0.738896 80.4867 1.62687 80.6021C1.70549 80.6123 1.78367 80.6174 1.86077 80.6174C2.65518 80.6174 3.34975 80.0912 3.46627 79.3613C4.63883 72.025 11.7329 66.4924 19.9674 66.4924H25.2132C26.0015 66.4924 26.7465 66.3234 27.4078 66.025L33.77 71.651C32.8805 72.4738 32.3795 73.5736 32.3795 74.7408V97.0703H18.003V84.7373C18.003 83.9283 17.276 83.2725 16.3787 83.2725C15.4814 83.2725 14.7544 83.9283 14.7544 84.7373V97.0703H3.29409V86.0889C3.29409 85.2799 2.56704 84.624 1.66975 84.624C0.772465 84.624 0.0454102 85.2799 0.0454102 86.0889V97.7424C0.0454102 98.9873 1.16859 100 2.54884 100H71.305C72.6853 100 73.8085 98.9871 73.8085 97.7424V81.5287C73.8087 71.6223 64.8707 63.5627 53.8845 63.5627ZM11.0769 16.0633C11.2681 12.4162 14.5887 9.46934 18.6365 9.3543C20.0677 9.31406 21.4464 9.61543 22.6729 10.2307C22.4293 11.1842 22.2961 12.1754 22.2961 13.1947C22.2961 14.0037 23.0231 14.6596 23.9204 14.6596C24.8177 14.6596 25.5448 14.0037 25.5448 13.1947C25.5445 7.53457 30.651 2.92969 36.9273 2.92969C43.2035 2.92969 48.31 7.53457 48.31 13.1947C48.31 14.0037 49.0371 14.6596 49.9343 14.6596C50.8316 14.6596 51.5587 14.0037 51.5587 13.1947C51.5587 12.1754 51.4255 11.184 51.1818 10.2305C52.4081 9.61523 53.7866 9.31348 55.218 9.3543C59.2661 9.46914 62.5867 12.4162 62.7777 16.0625C62.9124 18.6574 61.4665 21.1035 59.0081 22.4438C58.2607 22.8488 57.7962 23.5889 57.7962 24.3754V26.7533H48.2608C47.3635 26.7533 46.6365 27.4092 46.6365 28.2182C46.6365 29.0271 47.3635 29.683 48.2608 29.683H59.1127C59.1866 29.683 59.2466 29.7371 59.2466 29.8037V34.5662C59.2466 34.6328 59.1866 34.6869 59.1127 34.6869H14.7418C14.6679 34.6869 14.608 34.6328 14.608 34.5662V29.8037C14.608 29.7371 14.6679 29.683 14.7418 29.683H40.5686C41.4659 29.683 42.1929 29.0271 42.1929 28.2182C42.1929 27.4092 41.4659 26.7533 40.5686 26.7533H16.0584V24.3754C16.0584 23.5889 15.5938 22.8488 14.8505 22.4461C12.388 21.1035 10.9424 18.6574 11.0769 16.0633ZM24.1041 50.2574C20.9184 46.6602 18.7318 42.1291 17.9615 37.6164H55.8931C55.1227 42.1289 52.9363 46.6602 49.7505 50.2574C46.0299 54.459 41.4759 56.7729 36.9273 56.7729C32.3787 56.7729 27.8247 54.459 24.1041 50.2574ZM36.9273 59.7025C39.233 59.7025 41.5209 59.2354 43.7198 58.3395V62.0549C43.7198 62.7426 43.8942 63.3941 44.205 63.9756L36.2845 69.7713L29.6743 63.9258C29.9688 63.3568 30.1345 62.723 30.1345 62.0549V58.3395C32.3336 59.2354 34.6216 59.7025 36.9273 59.7025ZM70.56 97.0703H59.0997V84.7373C59.0997 83.9283 58.3727 83.2725 57.4754 83.2725C56.5781 83.2725 55.8511 83.9283 55.8511 84.7373V97.0703H35.6287V74.7408C35.6287 74.2846 35.8537 73.8588 36.2474 73.5713L46.5163 66.057C47.1597 66.3359 47.8805 66.4924 48.6409 66.4924H53.8845C63.0794 66.4924 70.56 73.2377 70.56 81.5285V97.0703Z" fill="black"/>
<path d="M42.5146 74.2493C39.9482 74.2493 37.8604 76.1323 37.8604 78.4465C37.8604 80.7608 39.9484 82.6438 42.5146 82.6438C45.0809 82.6438 47.1689 80.7608 47.1689 78.4465C47.1689 76.1323 45.0809 74.2493 42.5146 74.2493ZM42.5146 79.7143C41.7395 79.7143 41.109 79.1456 41.109 78.4467C41.109 77.7479 41.7395 77.1792 42.5146 77.1792C43.2898 77.1792 43.9202 77.7479 43.9202 78.4467C43.9202 79.1456 43.2898 79.7143 42.5146 79.7143Z" fill="black"/>
<path d="M42.5146 85.6598C39.9482 85.6598 37.8604 87.5428 37.8604 89.8571C37.8604 92.1713 39.9484 94.0543 42.5146 94.0543C45.0809 94.0543 47.1689 92.1713 47.1689 89.8571C47.1689 87.5428 45.0809 85.6598 42.5146 85.6598ZM42.5146 91.1248C41.7395 91.1248 41.109 90.5561 41.109 89.8573C41.109 89.1584 41.7395 88.5897 42.5146 88.5897C43.2898 88.5897 43.9202 89.1584 43.9202 89.8573C43.9202 90.5561 43.2898 91.1248 42.5146 91.1248Z" fill="black"/>
</svg>
