<svg width="116" height="121" viewBox="0 0 116 121" fill="none" xmlns="http://www.w3.org/2000/svg">
<ellipse cx="64.6096" cy="71" rx="50.5226" ry="50" fill="#EA5A64"/>
<path d="M82.728 45.9502H79.4997V16.4013C79.4997 11.6647 75.6056 7.81091 70.8195 7.81091H69.0739C67.9924 4.77605 63.5851 2.73913 63.0206 2.48901C62.6643 2.33113 62.2567 2.33113 61.9004 2.48901C61.3359 2.73913 56.9285 4.77605 55.8471 7.81091H52.9594C51.7776 3.48333 45.2636 0.476497 44.4553 0.118412C44.0992 -0.0394708 43.6915 -0.0394708 43.3353 0.118412C42.5271 0.476497 36.0132 3.48333 34.8313 7.81091H31.9436C30.8621 4.77605 26.4548 2.73913 25.8903 2.48901C25.5339 2.33113 25.1264 2.33113 24.7701 2.48901C24.2056 2.73913 19.7982 4.77605 18.7168 7.81091H16.9712C12.185 7.81091 8.29098 11.6647 8.29098 16.4013V45.9502H5.06286C2.79558 45.9502 0.951172 47.7757 0.951172 50.0194C0.951172 52.263 2.79558 54.0885 5.06286 54.0885H29.9247C30.5613 57.1804 33.33 59.5141 36.6395 59.5141H39.0559V66.1403C35.9962 67.7093 33.9307 70.6415 33.4888 74.0026H28.7778C26.2289 74.0026 23.4212 75.8082 22.386 78.1133L20.5774 82.1409H17.8133C17.0564 82.1409 16.4427 82.748 16.4427 83.4973C16.4427 84.2465 17.0564 84.8536 17.8133 84.8536H21.4604C21.4723 84.8536 66.3185 84.8536 66.3185 84.8536C66.3304 84.8536 69.9776 84.8536 69.9776 84.8536C70.7345 84.8536 71.3481 84.2465 71.3481 83.4973C71.3481 82.748 70.7345 82.1409 69.9776 82.1409H67.2134L65.4048 78.1133C64.3696 75.8082 61.562 74.0026 59.0131 74.0026H54.302C53.8601 70.6415 51.7946 67.7093 48.735 66.1401V59.5141H51.1514C54.4608 59.5141 57.2295 57.1804 57.8662 54.0885H82.728C84.9953 54.0885 86.8397 52.263 86.8397 50.0194C86.8397 47.7757 84.9953 45.9502 82.728 45.9502ZM62.4605 5.23288C63.6999 5.86405 65.1452 6.84173 65.95 7.81091H58.9714C59.776 6.84155 61.2215 5.86369 62.4605 5.23288ZM43.8963 2.85885C45.6766 3.7405 48.9446 5.71539 50.0354 7.81091H37.7573C38.8505 5.71973 42.1177 3.74212 43.8963 2.85885ZM25.3302 5.23288C26.5695 5.86405 28.0148 6.84173 28.8196 7.81091H21.8411C22.6457 6.84155 24.0914 5.86369 25.3302 5.23288ZM16.9714 10.5237H70.8195C74.0942 10.5237 76.7586 13.1603 76.7586 16.4013V20.5609C74.28 20.8899 72.8345 22.0875 71.5404 23.1655C70.1601 24.3152 69.0697 25.2234 66.7167 25.2234C64.3637 25.2234 63.2735 24.3154 61.8931 23.1655C60.3765 21.9023 58.6575 20.4705 55.3043 20.4705C51.9516 20.4705 50.2329 21.9023 48.7163 23.1657C47.3363 24.3152 46.2462 25.2234 43.8936 25.2234C41.5408 25.2234 40.4507 24.3154 39.0705 23.1655C37.5541 21.9023 35.8352 20.4705 32.4823 20.4705C29.1295 20.4705 27.4109 21.9023 25.8945 23.1655C25.0838 23.841 24.3181 24.4791 23.3266 24.8514C22.7943 25.0513 22.4425 25.556 22.4425 26.1195V33.586C22.4425 34.334 21.8277 34.9424 21.0719 34.9424C20.3163 34.9424 19.7014 34.334 19.7014 33.586C19.7014 31.1136 19.7014 26.4532 19.7019 26.1414C19.7114 25.5784 19.3646 25.0571 18.8178 24.8516C17.8261 24.4791 17.0602 23.841 16.2496 23.1657C14.9556 22.0875 13.5104 20.8901 11.0323 20.5609V16.4013C11.0323 13.1603 13.6967 10.5237 16.9714 10.5237ZM11.0323 23.3077C12.5001 23.5923 13.4048 24.3416 14.4843 25.2408C15.1917 25.8302 15.9729 26.4809 16.9608 26.9931L16.9604 33.5858C16.9604 35.8294 18.8048 37.655 21.0721 37.655C23.3394 37.655 25.1838 35.8294 25.1838 33.5858V26.9931C26.1715 26.4809 26.9527 25.83 27.6601 25.2408C29.0402 24.0913 30.1302 23.1831 32.4827 23.1831C34.8355 23.1831 35.9255 24.0911 37.3056 25.241C38.8222 26.5042 40.541 27.936 43.8938 27.936C47.2465 27.936 48.9652 26.5042 50.4818 25.2408C51.8619 24.0913 52.9519 23.1831 55.3045 23.1831C57.6577 23.1831 58.7479 24.0911 60.1282 25.241C61.6447 26.5042 63.3638 27.936 66.7169 27.936C70.07 27.936 71.7891 26.5042 73.3057 25.241C74.3855 24.3416 75.2904 23.5922 76.7587 23.3075V45.9499H11.0323V23.3077ZM46.843 68.2591C49.3325 69.2728 51.0702 71.4477 51.5291 74.0024H43.9068C43.1498 74.0024 42.5362 74.6095 42.5362 75.3588C42.5362 76.108 43.1498 76.7152 43.9068 76.7152H59.0133C60.4858 76.7152 62.3021 77.8833 62.9002 79.2149L64.2141 82.1407H23.5769L24.8909 79.2149C25.489 77.8833 27.3052 76.7152 28.7778 76.7152H38.4245C39.1814 76.7152 39.7951 76.108 39.7951 75.3588C39.7951 74.6095 39.1814 74.0024 38.4245 74.0024H36.2619C36.7208 71.4479 38.4585 69.273 40.948 68.2591C41.4619 68.05 41.797 67.5545 41.797 67.0047V59.5139H45.994V67.0047C45.9938 67.5547 46.3292 68.05 46.843 68.2591ZM51.1514 56.8013H36.6395C34.8528 56.8013 33.3293 55.6672 32.7635 54.0885H55.0273C54.4615 55.6672 52.9382 56.8013 51.1514 56.8013ZM82.728 51.3758H5.06286C4.30704 51.3758 3.69229 50.7674 3.69229 50.0194C3.69229 49.2714 4.30704 48.663 5.06286 48.663H82.728C83.4838 48.663 84.0985 49.2714 84.0985 50.0194C84.0985 50.7674 83.4838 51.3758 82.728 51.3758Z" fill="black"/>
<path d="M62.7514 41.6412C63.5084 41.6412 64.122 41.034 64.122 40.2848C64.122 39.5357 63.5084 38.9285 62.7514 38.9285C61.9945 38.9285 61.3809 39.5357 61.3809 40.2848C61.3809 41.034 61.9945 41.6412 62.7514 41.6412Z" fill="black"/>
<path d="M68.2343 36.2157C68.9913 36.2157 69.6049 35.6084 69.6049 34.8593C69.6049 34.1102 68.9913 33.5029 68.2343 33.5029C67.4774 33.5029 66.8638 34.1102 66.8638 34.8593C66.8638 35.6084 67.4774 36.2157 68.2343 36.2157Z" fill="black"/>
</svg>
