<svg width="130" height="126" viewBox="0 0 130 126" fill="none" xmlns="http://www.w3.org/2000/svg">
<ellipse cx="78.4846" cy="76" rx="50.5226" ry="50" fill="#EA5A64"/>
<g clip-path="url(#clip0)">
<path d="M85.7222 33.7064C89.8681 33.3201 93.1235 29.8556 93.1235 25.6503C93.1235 21.1885 89.4572 17.558 84.951 17.558H84.661C84.3263 15.6678 83.476 13.9978 82.1841 12.7411C80.4645 11.0682 78.0235 10.213 75.124 10.2615L74.4905 10.2731C65.8208 10.4282 64.0177 10.4609 49.7211 3.20568C40.6968 -1.37574 30.276 -1.31123 22.5246 3.37528C17.0772 6.66801 13.7318 11.7655 13.1437 17.5573H12.6017C8.09544 17.5573 4.4292 21.1878 4.4292 25.6503C4.4292 29.8556 7.68458 33.3201 11.8305 33.7064L10.0809 73.1598C5.70132 80.7839 4.62547 86.6112 6.88264 90.4852C8.03392 92.4603 10.6075 94.8144 16.3353 94.8144H81.2225C86.9503 94.8144 89.5246 92.4603 90.6752 90.4852C92.9316 86.6112 91.8536 80.7824 87.4718 73.159L85.7222 33.7064ZM8.17527 25.6503C8.17527 23.2324 10.1607 21.2653 12.6017 21.2653H41.293C42.3271 21.2653 43.1657 20.4354 43.1657 19.4113C43.1657 18.3879 42.3271 17.558 41.293 17.558H16.9161C17.4976 13.0832 20.1803 9.13666 24.4771 6.539C31.1226 2.52147 40.1402 2.50843 48.0117 6.50493C63.1462 14.1848 65.5637 14.1406 74.5587 13.9797L75.1907 13.9681C77.0846 13.9355 78.5581 14.4124 79.5585 15.3851C80.1357 15.9461 80.5641 16.6977 80.816 17.5573H56.2597C55.2256 17.5573 54.387 18.3879 54.387 19.4113C54.387 20.4347 55.2256 21.2646 56.2597 21.2646H84.951C87.392 21.2646 89.3774 23.2324 89.3774 25.6503C89.3774 28.0682 87.392 30.0353 84.951 30.0353H12.6017C10.1607 30.0361 8.17527 28.069 8.17527 25.6503ZM87.4293 88.6334C86.2385 90.678 83.3969 91.1071 81.2225 91.1071H16.3353C14.1609 91.1071 11.3193 90.678 10.1278 88.6334C8.59272 85.9995 9.80918 81.0223 13.5531 74.6195C13.7047 74.3607 13.7903 74.0701 13.8035 73.7722L15.5781 33.7434H81.9739L83.7492 73.7722C83.7623 74.0708 83.848 74.3615 83.9989 74.6195C87.7457 81.023 88.9644 86.0002 87.4293 88.6334Z" fill="black"/>
<path d="M60.9147 50.1809C59.595 48.8734 57.5634 48.5654 55.1671 49.2938C55.1949 48.9212 55.2117 48.5451 55.2117 48.166C55.2117 42.6902 52.3665 38.4001 48.7339 38.4001C45.1043 38.4001 42.2613 42.6902 42.2613 48.166C42.2613 48.5451 42.2781 48.9212 42.3059 49.2938C39.9096 48.5654 37.8773 48.8734 36.5583 50.1809C34.6475 52.0734 34.8973 55.3987 37.0592 58.8864C36.8835 59.0132 36.715 59.1524 36.5583 59.3082C33.9884 61.853 35.4297 67.1179 39.9111 71.5572C41.9932 73.6135 44.35 75.1073 46.5617 75.7741C46.6591 75.8132 46.7595 75.8487 46.8605 75.8821V80.7824C46.8605 81.8058 47.6991 82.6357 48.7339 82.6357C49.768 82.6357 50.6066 81.8058 50.6066 80.7824V75.8828C50.7091 75.8494 50.8102 75.8139 50.9083 75.7733C53.1223 75.1065 55.4798 73.6135 57.5634 71.5558C62.0433 67.1179 63.4846 61.853 60.9147 59.3082C60.758 59.1524 60.5902 59.0132 60.4137 58.8864C62.5757 55.398 62.8262 52.0734 60.9147 50.1809ZM58.265 52.801C58.7359 53.2671 58.4554 55.4516 56.3982 58.1319C55.8899 58.2138 55.3619 58.3443 54.8148 58.5313C53.4284 59.0045 51.9864 59.8004 50.6073 60.8404V56.7359C50.7904 56.5359 50.9852 56.3322 51.1947 56.122C51.949 55.3755 52.762 54.7123 53.5771 54.1687C53.5785 54.168 53.58 54.1673 53.5807 54.1658C54.4156 53.6099 55.2535 53.1779 56.0371 52.9105C57.2316 52.5017 58.0291 52.5677 58.265 52.801ZM48.7339 42.1075C49.8215 42.1075 51.4657 44.5239 51.4657 48.166C51.4657 49.3344 51.295 50.4556 50.9728 51.4457C50.206 51.9958 49.4538 52.6227 48.7361 53.3135C48.0199 52.6227 47.2677 51.9958 46.4995 51.445C46.1772 50.4549 46.0073 49.3336 46.0073 48.166C46.0073 44.5239 47.6486 42.1075 48.7339 42.1075ZM39.208 52.801C39.4438 52.5677 40.2421 52.5017 41.4366 52.9105C42.2107 53.175 43.0383 53.5998 43.8629 54.1455C43.871 54.1513 43.8791 54.1571 43.8878 54.1629C44.7044 54.7065 45.5166 55.3683 46.2688 56.1119C46.4731 56.317 46.6708 56.525 46.8605 56.7345V60.8368C45.4829 59.7982 44.0431 59.0038 42.6582 58.5313C42.1111 58.3443 41.5831 58.2138 41.0748 58.1319C39.0176 55.4516 38.7371 53.2671 39.208 52.801ZM42.5593 68.9349C39.1736 65.5813 38.6675 62.4633 39.208 61.9284C39.4446 61.6943 40.2421 61.6283 41.4366 62.0356C42.9863 62.5647 44.7506 63.7353 46.2776 65.2479C46.4768 65.4443 46.6708 65.6494 46.8605 65.8582V71.9385C45.4529 71.3456 43.9281 70.2867 42.5593 68.9349ZM54.9158 68.9335C53.5449 70.2874 52.0171 71.347 50.6073 71.9399V65.8589C50.7933 65.656 50.9896 65.4523 51.1954 65.2479C52.7224 63.7353 54.4867 62.5647 56.0364 62.0356C57.2309 61.6283 58.0291 61.6943 58.265 61.9284C58.8055 62.4633 58.2994 65.5813 54.9158 68.9335Z" fill="black"/>
<path d="M48.7765 21.2654H48.8138C49.8479 21.2654 50.6865 20.4355 50.6865 19.4114C50.6865 18.388 49.8479 17.5581 48.8138 17.5581H48.7765C47.7416 17.5581 46.9038 18.388 46.9038 19.4114C46.9038 20.4355 47.7416 21.2654 48.7765 21.2654Z" fill="black"/>
</g>
<defs>
<clipPath id="clip0">
<rect width="95.993" height="95" fill="white" transform="translate(0.679688)"/>
</clipPath>
</defs>
</svg>
