<svg width="263" height="49" viewBox="0 0 263 49" fill="none" xmlns="http://www.w3.org/2000/svg">
<path d="M39.2002 47.8438H26.8252V46.4688C26.8252 46.1146 26.8877 45.8125 27.0127 45.5625C27.1585 45.3125 27.4085 45.0729 27.7627 44.8438L28.6064 44.2188C28.8356 44.0312 29.0023 43.8438 29.1064 43.6562C29.2314 43.4479 29.3252 43.1667 29.3877 42.8125C29.471 42.4375 29.5335 41.9688 29.5752 41.4062C29.6169 40.8438 29.6377 40.1354 29.6377 39.2812L29.7314 6.625L29.0439 6.5625L19.0752 47.8438H17.3564L7.5127 6.5625L6.9502 6.625V39.2812C6.9502 40.8438 7.02311 41.9583 7.16895 42.625C7.29395 43.3542 7.5752 43.8958 8.0127 44.25L8.7627 44.8438C9.1377 45.0938 9.41895 45.3438 9.60645 45.5938C9.79395 45.8438 9.8877 46.1354 9.8877 46.4688V47.8438H0.293945V46.4688C0.293945 45.7812 0.596029 45.2396 1.2002 44.8438C1.34603 44.7396 1.49186 44.6354 1.6377 44.5312C1.80436 44.4271 1.93978 44.3229 2.04395 44.2188C2.27311 44.0312 2.43978 43.8438 2.54395 43.6562C2.66895 43.4479 2.7627 43.1667 2.8252 42.8125C2.90853 42.4375 2.97103 41.9688 3.0127 41.4062C3.05436 40.8438 3.0752 40.1354 3.0752 39.2812L3.2002 9.5625C3.2002 8.70833 3.16895 8.05208 3.10645 7.59375C3.06478 7.13542 2.98145 6.66667 2.85645 6.1875C2.73145 5.39583 2.46061 4.84375 2.04395 4.53125L1.41895 3.9375C0.793945 3.47917 0.481445 2.94792 0.481445 2.34375L0.512695 1.09375H12.8252L19.3252 29.9688H19.8877L26.7002 1.09375H38.8564V2.34375C38.8564 2.90625 38.5439 3.4375 37.9189 3.9375L37.2939 4.53125C36.8773 4.86458 36.5856 5.4375 36.4189 6.25C36.2523 7.04167 36.1689 8.14583 36.1689 9.5625V39.2812C36.1689 40.9062 36.221 42.0521 36.3252 42.7188C36.4502 43.3646 36.7523 43.8646 37.2314 44.2188C37.3564 44.3438 37.4814 44.4583 37.6064 44.5625C37.7314 44.6458 37.8877 44.7396 38.0752 44.8438C38.8252 45.3021 39.2002 45.8438 39.2002 46.4688V47.8438ZM71.3564 47.8438H44.7939V46.4688C44.7939 45.7812 45.096 45.2396 45.7002 44.8438C45.9294 44.6979 46.096 44.5938 46.2002 44.5312C46.3877 44.4062 46.5231 44.3021 46.6064 44.2188C46.9606 43.8854 47.2106 43.375 47.3564 42.6875C47.5023 41.9792 47.5752 40.8542 47.5752 39.3125L47.7002 9.5625C47.7002 8.72917 47.6689 8.08333 47.6064 7.625C47.5648 7.16667 47.4814 6.69792 47.3564 6.21875C47.2314 5.42708 46.9814 4.875 46.6064 4.5625L45.9189 3.96875C45.2939 3.51042 44.9814 2.97917 44.9814 2.375L45.0127 1.125H61.5439C62.2106 1.125 63.0335 1.08333 64.0127 1C64.9919 0.895833 65.7002 0.822917 66.1377 0.78125C67.1169 0.677083 67.7835 0.604167 68.1377 0.5625C68.4919 0.5 68.9085 0.40625 69.3877 0.28125V10.4062H67.7002C66.8877 10.4062 66.2835 9.875 65.8877 8.8125C65.6585 8.02083 65.3669 7.36458 65.0127 6.84375C64.3669 5.98958 63.6585 5.40625 62.8877 5.09375C62.2002 4.78125 60.7106 4.625 58.4189 4.625H55.0439V22.0312L57.3252 22.0938C58.5335 22.0938 59.4398 21.9062 60.0439 21.5312C60.6273 21.2604 61.1481 20.6771 61.6064 19.7812L61.8564 19.0625C62.1064 18.4167 62.596 18.0938 63.3252 18.0938H64.5127V29.6562H63.3252C62.6585 29.6562 62.1794 29.2917 61.8877 28.5625C61.8252 28.2708 61.721 27.9792 61.5752 27.6875C61.4502 27.375 61.2627 27.0833 61.0127 26.8125C60.7627 26.5417 60.4502 26.2917 60.0752 26.0625C59.5335 25.7708 58.6169 25.625 57.3252 25.625H55.0439V44.2812L58.3564 44.3438C59.5439 44.3438 60.6064 44.2812 61.5439 44.1562C62.5023 44.0104 63.2627 43.8438 63.8252 43.6562C64.3877 43.4479 64.8981 43.1562 65.3564 42.7812C65.8356 42.4062 66.2835 41.9688 66.7002 41.4688C67.1169 40.8854 67.5127 39.8646 67.8877 38.4062C68.2002 37.3229 68.596 36.7812 69.0752 36.7812H71.3564V47.8438ZM107.7 47.8438H98.3564L90.2627 29.125C90.2627 28.9792 90.2106 28.8333 90.1064 28.6875C89.2523 26.8542 88.0231 25.9375 86.4189 25.9375H85.9189V39.2812C85.9189 40.8438 85.9919 41.9583 86.1377 42.625C86.2627 43.375 86.5335 43.9167 86.9502 44.25L87.7314 44.8438C88.5231 45.3229 88.9189 45.8646 88.9189 46.4688V47.8438H75.9814V46.4688C75.9814 45.7812 76.2835 45.2396 76.8877 44.8438L77.7939 44.2188C78.1481 43.8854 78.3981 43.3854 78.5439 42.7188C78.6064 42.4062 78.6585 41.9688 78.7002 41.4062C78.7419 40.8438 78.7627 40.1354 78.7627 39.2812L78.8877 9.5625C78.8877 8.70833 78.8564 8.05208 78.7939 7.59375C78.7523 7.13542 78.6689 6.66667 78.5439 6.1875C78.4189 5.375 78.1689 4.8125 77.7939 4.5C77.6898 4.45833 77.596 4.39583 77.5127 4.3125C77.346 4.14583 77.2106 4.02083 77.1064 3.9375C76.4814 3.47917 76.1689 2.94792 76.1689 2.34375L76.2002 1.09375H86.4814C87.8981 1.09375 89.2627 1.10417 90.5752 1.125C91.8877 1.125 92.9085 1.1875 93.6377 1.3125C95.0544 1.52083 96.2835 1.89583 97.3252 2.4375C99.3252 3.52083 100.867 4.97917 101.95 6.8125C103.034 8.625 103.575 10.8021 103.575 13.3438C103.575 16.3438 102.773 18.7708 101.169 20.625C99.5856 22.4792 97.0752 23.8958 93.6377 24.875V25.375C94.9502 25.7083 96.096 26.3646 97.0752 27.3438C97.9502 28.2604 98.8877 29.8646 99.8877 32.1562L103.138 39.875C103.159 40.0208 103.19 40.1146 103.231 40.1562C103.69 41.3021 104.117 42.2083 104.513 42.875C104.909 43.5417 105.273 44.0104 105.606 44.2812C105.669 44.3229 105.742 44.3542 105.825 44.375C106.054 44.4792 106.252 44.5833 106.419 44.6875C107.273 45.2083 107.7 45.8021 107.7 46.4688V47.8438ZM95.5752 13.5312C95.5752 12.0938 95.3877 10.7917 95.0127 9.625C94.6585 8.45833 94.1377 7.46875 93.4502 6.65625C92.2002 5.15625 90.1585 4.40625 87.3252 4.40625C87.096 4.36458 86.9085 4.375 86.7627 4.4375C86.4085 4.4375 86.1273 4.46875 85.9189 4.53125V22.6562C86.2106 22.6562 86.5023 22.6562 86.7939 22.6562C86.8356 22.6562 86.971 22.6771 87.2002 22.7188C87.4294 22.7604 87.6273 22.7812 87.7939 22.7812C90.4814 22.7812 92.4294 22.0312 93.6377 20.5312C94.2835 19.7604 94.7627 18.8021 95.0752 17.6562C95.4085 16.5104 95.5752 15.1354 95.5752 13.5312ZM123.294 47.8438H109.794V46.4688C109.794 46.1354 109.867 45.8438 110.013 45.5938C110.179 45.3229 110.44 45.0729 110.794 44.8438C111.044 44.7188 111.221 44.6146 111.325 44.5312C111.429 44.4479 111.544 44.3438 111.669 44.2188C111.898 44.0312 112.065 43.8438 112.169 43.6562C112.294 43.4479 112.398 43.1667 112.481 42.8125C112.565 42.4375 112.627 41.9896 112.669 41.4688C112.711 40.9271 112.731 40.1979 112.731 39.2812L112.856 9.5625C112.856 8.79167 112.825 8.1875 112.763 7.75C112.721 7.29167 112.627 6.80208 112.481 6.28125C112.356 5.44792 112.065 4.86458 111.606 4.53125L111.013 3.9375C110.325 3.5 109.981 2.96875 109.981 2.34375L110.013 1.09375H122.981V2.34375C122.981 2.94792 122.627 3.47917 121.919 3.9375C121.773 4.02083 121.648 4.125 121.544 4.25C121.461 4.35417 121.377 4.44792 121.294 4.53125C120.919 4.82292 120.648 5.3125 120.481 6C120.315 6.6875 120.231 7.875 120.231 9.5625V39.2812C120.231 40.9688 120.304 42.1146 120.45 42.7188C120.513 43.0729 120.606 43.375 120.731 43.625C120.856 43.875 121.044 44.0938 121.294 44.2812C121.398 44.3646 121.544 44.4688 121.731 44.5938C121.919 44.6979 122.065 44.7812 122.169 44.8438C122.919 45.3021 123.294 45.8438 123.294 46.4688V47.8438ZM159.013 2.34375C159.013 2.67708 158.929 2.95833 158.763 3.1875C158.617 3.41667 158.367 3.66667 158.013 3.9375L157.356 4.5625C156.961 4.83333 156.69 5.32292 156.544 6.03125C156.398 6.73958 156.325 7.91667 156.325 9.5625V47.8438H152.731L136.169 12.0938L135.638 12.2188V39.2812C135.638 40.9062 135.7 42.0625 135.825 42.75C135.95 43.4375 136.221 43.9479 136.638 44.2812L137.388 44.8438C138.179 45.3229 138.575 45.8646 138.575 46.4688V47.8438H128.919V46.4688C128.919 45.7812 129.221 45.2396 129.825 44.8438C129.992 44.7396 130.159 44.6354 130.325 44.5312C130.513 44.4062 130.648 44.3021 130.731 44.2188C131.086 43.8854 131.336 43.3854 131.481 42.7188C131.544 42.4062 131.596 41.9688 131.638 41.4062C131.679 40.8438 131.7 40.1354 131.7 39.2812L131.856 9.5625C131.856 8.75 131.815 8.08333 131.731 7.5625C131.669 7.02083 131.575 6.54167 131.45 6.125C131.304 5.39583 131.002 4.85417 130.544 4.5C130.461 4.4375 130.304 4.34375 130.075 4.21875C129.846 4.07292 129.659 3.95833 129.513 3.875C129.221 3.6875 128.971 3.45833 128.763 3.1875C128.554 2.89583 128.45 2.61458 128.45 2.34375L128.481 1.09375H138.731L151.888 29.375L152.544 29.2188L152.606 9.5625C152.606 8.89583 152.575 8.3125 152.513 7.8125C152.45 7.29167 152.356 6.78125 152.231 6.28125C152.106 5.46875 151.836 4.88542 151.419 4.53125L150.794 3.9375C150.169 3.47917 149.856 2.94792 149.856 2.34375L149.888 1.09375H159.013V2.34375ZM194.575 45.5C192.179 46.5625 189.971 47.3438 187.95 47.8438C186.909 48.0729 185.794 48.2604 184.606 48.4062C183.44 48.5521 182.336 48.625 181.294 48.625C175.856 48.625 171.523 46.7188 168.294 42.9062C165.086 39.0729 163.481 33.8125 163.481 27.125C163.481 24.7083 163.627 22.4688 163.919 20.4062C164.231 18.3229 164.731 16.3438 165.419 14.4688C166.106 12.5938 166.95 10.8229 167.95 9.15625C168.95 7.48958 170.096 5.96875 171.388 4.59375C172.179 3.82292 172.919 3.1875 173.606 2.6875C174.294 2.16667 175.054 1.71875 175.888 1.34375C177.346 0.614583 178.961 0.25 180.731 0.25C181.565 0.25 182.367 0.34375 183.138 0.53125C183.929 0.71875 184.7 1.02083 185.45 1.4375C186.263 1.83333 186.929 2.15625 187.45 2.40625C187.638 2.48958 187.877 2.59375 188.169 2.71875C188.273 2.71875 188.409 2.66667 188.575 2.5625C188.846 2.39583 189.044 2.28125 189.169 2.21875C189.44 1.98958 189.763 1.875 190.138 1.875L191.575 1.90625V13.1562H190.138C189.7 13.1562 189.325 13.0104 189.013 12.7188C188.721 12.4062 188.481 11.9375 188.294 11.3125L187.888 9.9375C187.554 8.85417 187.169 7.9375 186.731 7.1875C186.315 6.4375 185.815 5.8125 185.231 5.3125C184.106 4.35417 182.69 3.875 180.981 3.875C177.961 3.875 175.627 5.90625 173.981 9.96875C173.211 12.0938 172.627 14.6146 172.231 17.5312C171.856 20.4271 171.669 23.8438 171.669 27.7812C171.669 30.6771 171.846 33.2292 172.2 35.4375C172.554 37.6458 173.065 39.4479 173.731 40.8438C175.106 43.6771 177.336 45.0938 180.419 45.0938C182.586 45.0938 184.159 44.4479 185.138 43.1562C185.575 42.5312 185.94 41.5208 186.231 40.125C186.523 38.7083 186.669 37.2812 186.669 35.8438C186.669 35.0938 186.606 34.2812 186.481 33.4062C186.356 32.5312 186.211 31.9479 186.044 31.6562C185.898 31.3021 185.669 30.9792 185.356 30.6875C185.044 30.3958 184.648 30.1146 184.169 29.8438C183.711 29.6562 183.377 29.5208 183.169 29.4375C182.752 29.2708 182.523 29.1458 182.481 29.0625C182.356 28.8333 182.273 28.5 182.231 28.0625L182.263 26.8125H193.2L192.638 29.4688C192.534 30.4479 192.481 31.2812 192.481 31.9688V38.5625C192.481 39.7292 192.554 40.6979 192.7 41.4688C192.846 42.2188 193.127 42.7708 193.544 43.125C193.711 43.2917 193.919 43.4375 194.169 43.5625C194.44 43.6875 194.575 43.9062 194.575 44.2188V45.5ZM230.356 2.34375C230.356 2.65625 230.273 2.9375 230.106 3.1875C229.961 3.4375 229.721 3.6875 229.388 3.9375L228.7 4.5625C228.325 4.83333 228.065 5.32292 227.919 6.03125C227.773 6.73958 227.7 7.91667 227.7 9.5625V32.1562C227.7 37.7396 226.575 41.8854 224.325 44.5938C222.096 47.2812 218.69 48.625 214.106 48.625C211.856 48.625 209.888 48.25 208.2 47.5C206.513 46.7292 205.138 45.5938 204.075 44.0938C203.2 42.9688 202.565 41.5729 202.169 39.9062C201.981 39.1979 201.856 38.1875 201.794 36.875C201.731 35.5417 201.7 33.8646 201.7 31.8438V9.5625C201.7 8.70833 201.669 8.05208 201.606 7.59375C201.565 7.13542 201.481 6.66667 201.356 6.1875C201.294 5.75 201.2 5.41667 201.075 5.1875C200.971 4.9375 200.804 4.72917 200.575 4.5625L199.888 3.9375C199.325 3.54167 199.044 3.01042 199.044 2.34375V1.09375H211.606V2.34375C211.606 2.92708 211.263 3.45833 210.575 3.9375L209.95 4.53125C209.596 4.82292 209.336 5.38542 209.169 6.21875C209.002 7.03125 208.919 8.14583 208.919 9.5625V31.6562C208.919 36.4271 209.398 39.6979 210.356 41.4688C211.44 43.2604 213.273 44.1562 215.856 44.1562C218.648 44.1562 220.659 43.1354 221.888 41.0938C223.034 38.9896 223.606 35.4062 223.606 30.3438L223.7 9.5625C223.7 8.70833 223.669 8.05208 223.606 7.59375C223.565 7.13542 223.481 6.66667 223.356 6.1875C223.231 5.39583 222.981 4.84375 222.606 4.53125L221.981 3.9375C221.669 3.72917 221.419 3.48958 221.231 3.21875C221.065 2.92708 220.971 2.63542 220.95 2.34375L221.013 1.09375H230.356V2.34375ZM262.231 47.8438H235.669V46.4688C235.669 45.7812 235.971 45.2396 236.575 44.8438C236.804 44.6979 236.971 44.5938 237.075 44.5312C237.263 44.4062 237.398 44.3021 237.481 44.2188C237.836 43.8854 238.086 43.375 238.231 42.6875C238.377 41.9792 238.45 40.8542 238.45 39.3125L238.575 9.5625C238.575 8.72917 238.544 8.08333 238.481 7.625C238.44 7.16667 238.356 6.69792 238.231 6.21875C238.106 5.42708 237.856 4.875 237.481 4.5625L236.794 3.96875C236.169 3.51042 235.856 2.97917 235.856 2.375L235.888 1.125H252.419C253.086 1.125 253.909 1.08333 254.888 1C255.867 0.895833 256.575 0.822917 257.013 0.78125C257.992 0.677083 258.659 0.604167 259.013 0.5625C259.367 0.5 259.784 0.40625 260.263 0.28125V10.4062H258.575C257.763 10.4062 257.159 9.875 256.763 8.8125C256.534 8.02083 256.242 7.36458 255.888 6.84375C255.242 5.98958 254.534 5.40625 253.763 5.09375C253.075 4.78125 251.586 4.625 249.294 4.625H245.919V22.0312L248.2 22.0938C249.409 22.0938 250.315 21.9062 250.919 21.5312C251.502 21.2604 252.023 20.6771 252.481 19.7812L252.731 19.0625C252.981 18.4167 253.471 18.0938 254.2 18.0938H255.388V29.6562H254.2C253.534 29.6562 253.054 29.2917 252.763 28.5625C252.7 28.2708 252.596 27.9792 252.45 27.6875C252.325 27.375 252.138 27.0833 251.888 26.8125C251.638 26.5417 251.325 26.2917 250.95 26.0625C250.409 25.7708 249.492 25.625 248.2 25.625H245.919V44.2812L249.231 44.3438C250.419 44.3438 251.481 44.2812 252.419 44.1562C253.377 44.0104 254.138 43.8438 254.7 43.6562C255.263 43.4479 255.773 43.1562 256.231 42.7812C256.711 42.4062 257.159 41.9688 257.575 41.4688C257.992 40.8854 258.388 39.8646 258.763 38.4062C259.075 37.3229 259.471 36.7812 259.95 36.7812H262.231V47.8438Z" fill="black"/>
</svg>
