<svg width="130" height="116" viewBox="0 0 130 116" fill="none" xmlns="http://www.w3.org/2000/svg">
<ellipse cx="78.9235" cy="66" rx="50.5226" ry="50" fill="#EA5A64"/>
<path d="M20.6435 59.2743C19.6282 59.2743 18.6356 59.5723 17.7914 60.1305C16.9471 60.6888 16.2891 61.4823 15.9006 62.4107C15.512 63.339 15.4103 64.3606 15.6084 65.3461C15.8065 66.3317 16.2954 67.237 17.0134 67.9475C17.7314 68.658 18.6461 69.1419 19.642 69.338C20.6378 69.534 21.6701 69.4334 22.6081 69.0488C23.5462 68.6643 24.348 68.0131 24.9121 67.1776C25.4762 66.3421 25.7773 65.3598 25.7773 64.3549C25.7757 63.0079 25.2343 61.7166 24.2719 60.7641C23.3095 59.8116 22.0046 59.2759 20.6435 59.2743ZM20.6435 66.0485C20.3051 66.0485 19.9742 65.9492 19.6928 65.7631C19.4114 65.577 19.1921 65.3125 19.0625 65.003C18.933 64.6936 18.8991 64.3531 18.9652 64.0245C19.0312 63.696 19.1942 63.3943 19.4335 63.1574C19.6728 62.9206 19.9777 62.7593 20.3097 62.6939C20.6416 62.6286 20.9857 62.6621 21.2984 62.7903C21.6111 62.9185 21.8783 63.1356 22.0664 63.4141C22.2544 63.6926 22.3548 64.02 22.3548 64.3549C22.3543 64.8039 22.1738 65.2344 21.853 65.5519C21.5322 65.8694 21.0972 66.048 20.6435 66.0485Z" fill="black"/>
<path d="M87.3818 59.2743C86.3664 59.2743 85.3739 59.5723 84.5296 60.1305C83.6854 60.6888 83.0274 61.4823 82.6388 62.4107C82.2503 63.339 82.1486 64.3606 82.3467 65.3461C82.5448 66.3317 83.0337 67.237 83.7517 67.9475C84.4697 68.658 85.3844 69.1419 86.3803 69.338C87.3761 69.534 88.4083 69.4334 89.3464 69.0488C90.2845 68.6643 91.0863 68.0131 91.6504 67.1776C92.2145 66.3421 92.5156 65.3598 92.5156 64.3549C92.514 63.0079 91.9726 61.7166 91.0102 60.7641C90.0477 59.8116 88.7429 59.2759 87.3818 59.2743ZM87.3818 66.0485C87.0433 66.0485 86.7125 65.9492 86.4311 65.7631C86.1497 65.577 85.9303 65.3125 85.8008 65.003C85.6713 64.6936 85.6374 64.3531 85.7034 64.0245C85.7695 63.696 85.9324 63.3943 86.1718 63.1574C86.4111 62.9206 86.716 62.7593 87.048 62.6939C87.3799 62.6286 87.724 62.6621 88.0367 62.7903C88.3494 62.9185 88.6166 63.1356 88.8047 63.4141C88.9927 63.6926 89.0931 64.02 89.0931 64.3549C89.0925 64.8039 88.9121 65.2344 88.5913 65.5519C88.2705 65.8694 87.8355 66.048 87.3818 66.0485Z" fill="black"/>
<path d="M100.216 0H38.6111C37.0231 0.00173701 35.5007 0.62679 34.3779 1.73802C33.255 2.84925 32.6234 4.3559 32.6217 5.92742V15.2419H15.5092C15.2074 15.2422 14.9111 15.3212 14.6501 15.471C14.3891 15.6207 14.1726 15.836 14.0225 16.0951L0.332512 39.8047C0.185187 40.0608 0.107781 40.3505 0.10791 40.6452V60.121C0.109665 61.6925 0.741251 63.1991 1.8641 64.3104C2.98694 65.4216 4.50935 66.0467 6.09729 66.0484H10.5209C10.9249 68.416 12.1631 70.5654 14.0161 72.1154C15.869 73.6655 18.2167 74.5159 20.6429 74.5159C23.0691 74.5159 25.4169 73.6655 27.2698 72.1154C29.1227 70.5654 30.361 68.416 30.765 66.0484H77.2597C77.6637 68.416 78.9019 70.5654 80.7548 72.1154C82.6078 73.6655 84.9555 74.5159 87.3817 74.5159C89.8079 74.5159 92.1557 73.6655 94.0086 72.1154C95.8615 70.5654 97.0998 68.416 97.5038 66.0484H100.216C101.804 66.0467 103.326 65.4216 104.449 64.3104C105.572 63.1991 106.204 61.6925 106.205 60.121V5.92742C106.204 4.3559 105.572 2.84925 104.449 1.73802C103.326 0.62679 101.804 0.00173701 100.216 0ZM13.569 23.7097H25.7767V38.9516H4.76893L13.569 23.7097ZM3.53041 47.4194H6.95291C7.40677 47.4194 7.84203 47.5978 8.16295 47.9154C8.48387 48.233 8.66417 48.6637 8.66417 49.1129C8.66417 49.5621 8.48387 49.9928 8.16295 50.3104C7.84203 50.628 7.40677 50.8065 6.95291 50.8065H3.53041V47.4194ZM20.6429 71.129C19.2891 71.129 17.9657 70.7317 16.84 69.9874C15.7144 69.243 14.837 68.185 14.319 66.9472C13.8009 65.7094 13.6653 64.3473 13.9294 63.0333C14.1936 61.7192 14.8455 60.5121 15.8028 59.5648C16.7601 58.6174 17.9797 57.9722 19.3075 57.7108C20.6353 57.4494 22.0116 57.5836 23.2624 58.0963C24.5132 58.609 25.5822 59.4773 26.3343 60.5913C27.0865 61.7053 27.4879 63.015 27.4879 64.3548C27.4855 66.1507 26.7636 67.8724 25.4804 69.1423C24.1973 70.4122 22.4576 71.1267 20.6429 71.129ZM32.6217 62.6613H30.765C30.361 60.2937 29.1227 58.1443 27.2698 56.5943C25.4169 55.0442 23.0691 54.1938 20.6429 54.1938C18.2167 54.1938 15.869 55.0442 14.0161 56.5943C12.1631 58.1443 10.9249 60.2937 10.5209 62.6613H6.09729C5.41668 62.6607 4.76412 62.3929 4.28286 61.9166C3.8016 61.4403 3.53098 60.7945 3.53041 60.121V54.1936H6.95291C8.31447 54.1936 9.62026 53.6583 10.583 52.7055C11.5458 51.7527 12.0867 50.4604 12.0867 49.1129C12.0867 47.7654 11.5458 46.4732 10.583 45.5203C9.62026 44.5675 8.31447 44.0323 6.95291 44.0323H3.53041V42.3387H27.4879C27.9418 42.3387 28.377 42.1603 28.698 41.8427C29.0189 41.5251 29.1992 41.0943 29.1992 40.6452V22.0161C29.1992 21.567 29.0189 21.1362 28.698 20.8186C28.377 20.501 27.9418 20.3226 27.4879 20.3226H15.5241L16.5017 18.629H32.6217V62.6613ZM87.3817 71.129C86.0279 71.129 84.7045 70.7317 83.5788 69.9874C82.4532 69.243 81.5758 68.185 81.0578 66.9472C80.5397 65.7094 80.4041 64.3473 80.6682 63.0333C80.9324 61.7192 81.5843 60.5121 82.5416 59.5648C83.4989 58.6174 84.7185 57.9722 86.0463 57.7108C87.3741 57.4494 88.7504 57.5836 90.0012 58.0963C91.2519 58.609 92.321 59.4773 93.0731 60.5913C93.8253 61.7053 94.2267 63.015 94.2267 64.3548C94.2243 66.1507 93.5024 67.8724 92.2192 69.1423C90.9361 70.4122 89.1964 71.1267 87.3817 71.129ZM102.783 60.121C102.782 60.7945 102.512 61.4403 102.031 61.9166C101.549 62.3929 100.897 62.6607 100.216 62.6613H97.5038C97.0998 60.2937 95.8615 58.1443 94.0086 56.5943C92.1557 55.0442 89.8079 54.1938 87.3817 54.1938C84.9555 54.1938 82.6078 55.0442 80.7548 56.5943C78.9019 58.1443 77.6637 60.2937 77.2597 62.6613H36.0442V50.8065H102.783V60.121ZM102.783 47.4194H36.0442V5.92742C36.0447 5.25386 36.3154 4.60804 36.7966 4.13176C37.2779 3.65548 37.9305 3.38766 38.6111 3.3871H100.216C100.897 3.38766 101.549 3.65548 102.031 4.13176C102.512 4.60804 102.782 5.25386 102.783 5.92742V47.4194Z" fill="black"/>
</svg>
